# Created with Anim8or 0.98
# Object "object01":

mtllib tet.mtl

# Shape "mesh01":
g mesh01
# No. points 20:
v -11.7281 -4.95805 26.6201
v 11.5881 -4.72575 31.4993
v -17.7594 16.6004 18.4735
v -15.4376 -20.7298 9.15578
v 19.967 16.9762 26.3685
v 22.2888 -20.354 17.0507
v -25.1965 14.1523 -4.02553
v 1.82927 30.1565 18.3181
v 5.58597 -30.245 3.24165
v -23.7616 -8.91885 -9.78416
v 35.8462 14.7606 8.74879
v 37.2811 -8.31077 2.99011
v -10.2042 26.1957 -18.0861
v 6.49862 36.0868 -4.27702
v 10.2553 -24.3148 -19.3534
v -7.88245 -11.1345 -27.4038
v 27.5222 26.5715 -10.1912
v 29.844 -10.7587 -19.5089
v 0.49645 10.5675 -32.5347
v 23.8127 10.7998 -27.6555

# No. normals 72:
vn -0.19840 0.29740 0.93391
vn -0.93562 -0.13916 0.32441
vn -0.13507 -0.72091 0.67974
vn 0.72953 -0.12258 0.67288
vn -0.56580 0.81871 0.09795
vn -0.46332 -0.82896 -0.31331
vn 0.46332 0.82896 0.31331
vn 0.56580 -0.81871 -0.09795
vn -0.72953 0.12258 -0.67288
vn 0.93562 0.13916 -0.32441
vn 0.13506 0.72092 -0.67973
vn 0.19840 -0.29741 -0.93391
vn -0.19840 0.29740 0.93391
vn -0.13507 -0.72091 0.67974
vn -0.93562 -0.13916 0.32441
vn -0.19840 0.29740 0.93391
vn 0.72953 -0.12258 0.67288
vn -0.13507 -0.72091 0.67974
vn -0.19840 0.29740 0.93391
vn -0.56580 0.81871 0.09795
vn -0.93562 -0.13916 0.32441
vn -0.93562 -0.13916 0.32441
vn -0.46332 -0.82896 -0.31331
vn -0.13507 -0.72091 0.67974
vn -0.19840 0.29740 0.93391
vn 0.46332 0.82896 0.31331
vn 0.72953 -0.12258 0.67288
vn -0.13507 -0.72091 0.67974
vn 0.56580 -0.81871 -0.09795
vn 0.72953 -0.12258 0.67288
vn -0.93562 -0.13916 0.32441
vn -0.72953 0.12258 -0.67288
vn -0.56580 0.81871 0.09795
vn -0.19840 0.29740 0.93391
vn 0.46332 0.82896 0.31331
vn -0.56580 0.81871 0.09795
vn -0.13507 -0.72091 0.67974
vn 0.56580 -0.81871 -0.09795
vn -0.46332 -0.82896 -0.31331
vn -0.93562 -0.13916 0.32441
vn -0.72953 0.12258 -0.67288
vn -0.46332 -0.82896 -0.31331
vn 0.72953 -0.12258 0.67288
vn 0.93562 0.13916 -0.32441
vn 0.46332 0.82896 0.31331
vn 0.72953 -0.12258 0.67288
vn 0.93562 0.13916 -0.32441
vn 0.56580 -0.81871 -0.09795
vn -0.56580 0.81871 0.09795
vn 0.13506 0.72092 -0.67973
vn -0.72953 0.12258 -0.67288
vn -0.56580 0.81871 0.09795
vn 0.13506 0.72092 -0.67973
vn 0.46332 0.82896 0.31331
vn -0.46332 -0.82896 -0.31331
vn 0.19840 -0.29741 -0.93391
vn 0.56580 -0.81871 -0.09795
vn -0.46332 -0.82896 -0.31331
vn 0.19840 -0.29741 -0.93391
vn -0.72953 0.12258 -0.67288
vn 0.46332 0.82896 0.31331
vn 0.13506 0.72092 -0.67973
vn 0.93562 0.13916 -0.32441
vn 0.56580 -0.81871 -0.09795
vn 0.19840 -0.29741 -0.93391
vn 0.93562 0.13916 -0.32441
vn -0.72953 0.12258 -0.67288
vn 0.19840 -0.29741 -0.93391
vn 0.13506 0.72092 -0.67973
vn 0.93562 0.13916 -0.32441
vn 0.19840 -0.29741 -0.93391
vn 0.13506 0.72092 -0.67973

# No. texture coordinates 20:
vt 0.14318 1.11803
vt 0.63629 1.5
vt 1.29788 1.11803
vt 1.21364 0.50000
vt 0.50000 0.50000
vt 0.14318 -0.11803
vt -0.43417 0.11803
vt -0.43417 0.88196
vt 1.29788 -0.11803
vt 0.63629 -0.50000
vt 1.43417 0.88197
vt 1.43417 0.11803
vt -0.29788 1.11803
vt 0.36371 1.5
vt 0.36371 -0.50000
vt -0.29788 -0.11803
vt 0.85682 1.11803
vt 0.85682 -0.11803
vt -0.21364 0.50000
vt 0.50000 0.50000

# No. faces 12:

usemtl ___default___

f 1/5/13 2/4/16 5/3/25 8/2/34 3/1/19
f 1/5/15 3/1/21 7/8/31 10/7/40 4/6/22
f 1/5/14 4/6/24 9/10/37 6/9/28 2/4/18
f 2/4/17 6/9/30 12/12/46 11/11/43 5/3/27
f 3/1/20 8/2/36 14/14/52 13/13/49 7/8/33
f 4/6/23 10/7/42 16/16/58 15/15/55 9/10/39
f 5/3/26 11/11/45 17/17/61 14/14/54 8/2/35
f 6/9/29 9/10/38 15/15/57 18/18/64 12/12/48
f 7/8/32 13/13/51 19/19/67 16/16/60 10/7/41
f 11/11/44 12/12/47 18/18/66 20/20/70 17/17/63
f 13/13/50 14/14/53 17/17/62 20/20/72 19/19/69
f 15/15/56 16/16/59 19/19/68 20/20/71 18/18/65

# End of Object "object01"
