# Created with Anim8or 0.98
# Object "object01":

mtllib test.mtl

# Shape "cube01":
g cube01
# No. points 8:
v 12.0443 13.9548 15.0123
v 12.0443 13.9548 37.0387
v 12.0443 38.3307 15.0123
v 12.0443 38.3307 37.0387
v 34.0707 13.9548 15.0123
v 34.0707 13.9548 37.0387
v 34.0707 38.3307 15.0123
v 34.0707 38.3307 37.0387

# No. normals 30:
vn 0 0 -1
vn 0 0 1
vn -1 0 0
vn 1 0 0
vn 0 1 0
vn 0 -1 0
vn 0 0 -1
vn 0 -1 0
vn -1 0 0
vn 0 0 1
vn 0 -1 0
vn -1 0 0
vn 0 0 -1
vn 0 1 0
vn -1 0 0
vn 0 0 1
vn 0 1 0
vn -1 0 0
vn 0 0 -1
vn 0 -1 0
vn 1 0 0
vn 0 0 1
vn 0 -1 0
vn 1 0 0
vn 0 0 -1
vn 0 1 0
vn 1 0 0
vn 0 0 1
vn 0 1 0
vn 1 0 0

# No. texture coordinates 8:
vt 0 0
vt 0 0
vt 0 1
vt 0 1
vt 1 0
vt 1 0
vt 1 1
vt 1 1

# No. faces 6:

usemtl ___default___

f 3/3/13 7/7/25 5/5/19 1/1/7   
f 6/6/22 8/8/28 4/4/16 2/2/10
f 2/2/12 4/4/18 3/3/15 1/1/9
f 7/7/27 8/8/30 6/6/24 5/5/21
f 4/4/17 8/8/29 7/7/26 3/3/14
f 5/5/20 6/6/23 2/2/11 1/1/8

# End of Object "object01"