# Created with Anim8or 0.98
# Object "object01":

mtllib gula.mtl

# Shape "mesh02":
g mesh02
# No. points 5:
v 14.9103 0.00002 8.60845
v -14.9103 0.00002 8.60845
v 0 0.00002 -17.2169
v 0 -47.3926 0
v 0 49.2331 0

# No. normals 18:
vn 0.85208 -0.17872 -0.49195
vn -0.85208 -0.17872 -0.49195
vn 0 -0.17872 0.98390
vn 0.85308 0.17224 -0.49253
vn 0 0.17224 0.98506
vn -0.85308 0.17224 -0.49253
vn 0.86602 -0.00329 -0.50000
vn 0 -0.00329 0.999995
vn -0.86602 -0.00329 -0.50000
vn 0 -0.00329 0.999995
vn 0.86602 -0.00329 -0.50000
vn -0.86602 -0.00329 -0.50000
vn 0.85208 -0.17872 -0.49195
vn 0 -0.17872 0.98390
vn -0.85208 -0.17872 -0.49195
vn 0.85308 0.17224 -0.49253
vn -0.85308 0.17224 -0.49253
vn 0 0.17224 0.98506

# No. texture coordinates 0:

# No. faces 6:

usemtl ___default___

f 1//7 4//13 3//11
f 3//12 4//15 2//9
f 2//10 4//14 1//8
f 3//11 5//16 1//7
f 1//8 5//18 2//10
f 2//9 5//17 3//12

# End of Object "object01"
